<mxfile host="app.diagrams.net" modified="2023-10-28T18:27:37.916Z" agent="Mozilla/5.0 (Macintosh; Intel Mac OS X 10.15; rv:109.0) Gecko/20100101 Firefox/119.0" etag="4S2JZ5GYEK_vTAhZxM7s" version="22.0.8" type="device">
  <diagram name="Page-1" id="fFnECqbP7vB2IltXVsmm">
    <mxGraphModel dx="933" dy="598" grid="1" gridSize="10" guides="1" tooltips="1" connect="1" arrows="1" fold="1" page="1" pageScale="1" pageWidth="827" pageHeight="1169" math="0" shadow="0">
      <root>
        <mxCell id="0" />
        <mxCell id="1" parent="0" />
        <mxCell id="qRMVFoka81Q3vhlr9n82-18" value="" style="rounded=0;whiteSpace=wrap;html=1;dashed=1;" vertex="1" parent="1">
          <mxGeometry x="380" y="185" width="240" height="140" as="geometry" />
        </mxCell>
        <mxCell id="qRMVFoka81Q3vhlr9n82-5" value="" style="rounded=0;whiteSpace=wrap;html=1;dashed=1;" vertex="1" parent="1">
          <mxGeometry x="50" y="120" width="290" height="310" as="geometry" />
        </mxCell>
        <mxCell id="qRMVFoka81Q3vhlr9n82-28" style="edgeStyle=orthogonalEdgeStyle;rounded=0;orthogonalLoop=1;jettySize=auto;html=1;exitX=0.5;exitY=1;exitDx=0;exitDy=0;entryX=0.5;entryY=0;entryDx=0;entryDy=0;" edge="1" parent="1" source="qRMVFoka81Q3vhlr9n82-3" target="qRMVFoka81Q3vhlr9n82-19">
          <mxGeometry relative="1" as="geometry" />
        </mxCell>
        <mxCell id="qRMVFoka81Q3vhlr9n82-3" value="Audio Detection (Python)" style="rounded=0;whiteSpace=wrap;html=1;" vertex="1" parent="1">
          <mxGeometry x="60" y="130" width="150" height="30" as="geometry" />
        </mxCell>
        <mxCell id="qRMVFoka81Q3vhlr9n82-6" value="Master" style="text;html=1;strokeColor=none;fillColor=none;align=center;verticalAlign=middle;whiteSpace=wrap;rounded=0;" vertex="1" parent="1">
          <mxGeometry x="130" y="90" width="60" height="30" as="geometry" />
        </mxCell>
        <mxCell id="qRMVFoka81Q3vhlr9n82-8" value="" style="rounded=0;whiteSpace=wrap;html=1;dashed=1;" vertex="1" parent="1">
          <mxGeometry x="370" y="175" width="240" height="140" as="geometry" />
        </mxCell>
        <mxCell id="qRMVFoka81Q3vhlr9n82-9" value="Slaves" style="text;html=1;strokeColor=none;fillColor=none;align=center;verticalAlign=middle;whiteSpace=wrap;rounded=0;" vertex="1" parent="1">
          <mxGeometry x="460" y="140" width="60" height="30" as="geometry" />
        </mxCell>
        <mxCell id="qRMVFoka81Q3vhlr9n82-10" value="InfluxDB" style="shape=cylinder3;whiteSpace=wrap;html=1;boundedLbl=1;backgroundOutline=1;size=15;" vertex="1" parent="1">
          <mxGeometry x="240" y="290" width="70" height="80" as="geometry" />
        </mxCell>
        <mxCell id="qRMVFoka81Q3vhlr9n82-11" value="Sound Player" style="rounded=0;whiteSpace=wrap;html=1;" vertex="1" parent="1">
          <mxGeometry x="60" y="290" width="140" height="30" as="geometry" />
        </mxCell>
        <mxCell id="qRMVFoka81Q3vhlr9n82-12" value="Journal (Next.js)" style="rounded=0;whiteSpace=wrap;html=1;" vertex="1" parent="1">
          <mxGeometry x="60" y="330" width="140" height="30" as="geometry" />
        </mxCell>
        <mxCell id="qRMVFoka81Q3vhlr9n82-17" value="" style="rounded=0;whiteSpace=wrap;html=1;dashed=1;" vertex="1" parent="1">
          <mxGeometry x="360" y="170" width="240" height="135" as="geometry" />
        </mxCell>
        <mxCell id="qRMVFoka81Q3vhlr9n82-29" style="edgeStyle=orthogonalEdgeStyle;rounded=0;orthogonalLoop=1;jettySize=auto;html=1;exitX=0;exitY=0.5;exitDx=0;exitDy=0;entryX=1;entryY=0.5;entryDx=0;entryDy=0;" edge="1" parent="1" source="qRMVFoka81Q3vhlr9n82-13" target="qRMVFoka81Q3vhlr9n82-19">
          <mxGeometry relative="1" as="geometry" />
        </mxCell>
        <mxCell id="qRMVFoka81Q3vhlr9n82-13" value="Audio Detection (Python)" style="rounded=0;whiteSpace=wrap;html=1;" vertex="1" parent="1">
          <mxGeometry x="380" y="185" width="150" height="30" as="geometry" />
        </mxCell>
        <mxCell id="qRMVFoka81Q3vhlr9n82-14" value="Sound Player" style="rounded=0;whiteSpace=wrap;html=1;" vertex="1" parent="1">
          <mxGeometry x="380" y="225" width="140" height="30" as="geometry" />
        </mxCell>
        <mxCell id="qRMVFoka81Q3vhlr9n82-26" style="edgeStyle=orthogonalEdgeStyle;rounded=0;orthogonalLoop=1;jettySize=auto;html=1;exitX=0.5;exitY=1;exitDx=0;exitDy=0;entryX=0.5;entryY=0;entryDx=0;entryDy=0;fillColor=#d5e8d4;strokeColor=#82b366;" edge="1" parent="1" source="qRMVFoka81Q3vhlr9n82-19" target="qRMVFoka81Q3vhlr9n82-11">
          <mxGeometry relative="1" as="geometry" />
        </mxCell>
        <mxCell id="qRMVFoka81Q3vhlr9n82-19" value="Sound Distributor" style="rounded=0;whiteSpace=wrap;html=1;" vertex="1" parent="1">
          <mxGeometry x="60" y="185" width="140" height="30" as="geometry" />
        </mxCell>
        <mxCell id="qRMVFoka81Q3vhlr9n82-22" style="edgeStyle=orthogonalEdgeStyle;rounded=0;orthogonalLoop=1;jettySize=auto;html=1;exitX=1;exitY=0.75;exitDx=0;exitDy=0;entryX=0.002;entryY=0.778;entryDx=0;entryDy=0;entryPerimeter=0;startArrow=classic;startFill=1;" edge="1" parent="1" source="qRMVFoka81Q3vhlr9n82-12" target="qRMVFoka81Q3vhlr9n82-10">
          <mxGeometry relative="1" as="geometry" />
        </mxCell>
        <mxCell id="qRMVFoka81Q3vhlr9n82-23" value="" style="shape=actor;whiteSpace=wrap;html=1;" vertex="1" parent="1">
          <mxGeometry x="170" y="560" width="40" height="60" as="geometry" />
        </mxCell>
        <mxCell id="qRMVFoka81Q3vhlr9n82-24" style="edgeStyle=orthogonalEdgeStyle;rounded=0;orthogonalLoop=1;jettySize=auto;html=1;exitX=0.5;exitY=0;exitDx=0;exitDy=0;entryX=0.14;entryY=1.168;entryDx=0;entryDy=0;entryPerimeter=0;" edge="1" parent="1" source="qRMVFoka81Q3vhlr9n82-23" target="qRMVFoka81Q3vhlr9n82-12">
          <mxGeometry relative="1" as="geometry">
            <Array as="points">
              <mxPoint x="190" y="520" />
              <mxPoint x="80" y="520" />
            </Array>
          </mxGeometry>
        </mxCell>
        <mxCell id="qRMVFoka81Q3vhlr9n82-27" style="edgeStyle=orthogonalEdgeStyle;rounded=0;orthogonalLoop=1;jettySize=auto;html=1;exitX=0.5;exitY=1;exitDx=0;exitDy=0;entryX=0.005;entryY=0.63;entryDx=0;entryDy=0;entryPerimeter=0;fillColor=#d5e8d4;strokeColor=#82b366;" edge="1" parent="1" source="qRMVFoka81Q3vhlr9n82-19" target="qRMVFoka81Q3vhlr9n82-14">
          <mxGeometry relative="1" as="geometry" />
        </mxCell>
        <mxCell id="qRMVFoka81Q3vhlr9n82-31" style="edgeStyle=orthogonalEdgeStyle;rounded=0;orthogonalLoop=1;jettySize=auto;html=1;exitX=0;exitY=0.5;exitDx=0;exitDy=0;entryX=1;entryY=0.5;entryDx=0;entryDy=0;" edge="1" parent="1">
          <mxGeometry relative="1" as="geometry">
            <mxPoint x="380" y="210" as="sourcePoint" />
            <mxPoint x="200" y="210" as="targetPoint" />
          </mxGeometry>
        </mxCell>
        <mxCell id="qRMVFoka81Q3vhlr9n82-32" style="edgeStyle=orthogonalEdgeStyle;rounded=0;orthogonalLoop=1;jettySize=auto;html=1;exitX=0;exitY=0.5;exitDx=0;exitDy=0;entryX=1;entryY=0.5;entryDx=0;entryDy=0;" edge="1" parent="1">
          <mxGeometry relative="1" as="geometry">
            <mxPoint x="380" y="190" as="sourcePoint" />
            <mxPoint x="200" y="190" as="targetPoint" />
          </mxGeometry>
        </mxCell>
        <mxCell id="qRMVFoka81Q3vhlr9n82-33" value="Sound" style="swimlane;fontStyle=0;childLayout=stackLayout;horizontal=1;startSize=30;horizontalStack=0;resizeParent=1;resizeParentMax=0;resizeLast=0;collapsible=1;marginBottom=0;whiteSpace=wrap;html=1;" vertex="1" parent="1">
          <mxGeometry x="400" y="440" width="140" height="90" as="geometry" />
        </mxCell>
        <mxCell id="qRMVFoka81Q3vhlr9n82-34" value="when: DateTime" style="text;strokeColor=none;fillColor=none;align=left;verticalAlign=middle;spacingLeft=4;spacingRight=4;overflow=hidden;points=[[0,0.5],[1,0.5]];portConstraint=eastwest;rotatable=0;whiteSpace=wrap;html=1;" vertex="1" parent="qRMVFoka81Q3vhlr9n82-33">
          <mxGeometry y="30" width="140" height="30" as="geometry" />
        </mxCell>
        <mxCell id="qRMVFoka81Q3vhlr9n82-35" value="file: String" style="text;strokeColor=none;fillColor=none;align=left;verticalAlign=middle;spacingLeft=4;spacingRight=4;overflow=hidden;points=[[0,0.5],[1,0.5]];portConstraint=eastwest;rotatable=0;whiteSpace=wrap;html=1;" vertex="1" parent="qRMVFoka81Q3vhlr9n82-33">
          <mxGeometry y="60" width="140" height="30" as="geometry" />
        </mxCell>
      </root>
    </mxGraphModel>
  </diagram>
</mxfile>
